<svg xmlns="http://www.w3.org/2000/svg" width="512" height="512" viewBox="0 0 512 512" version="1.1"><path d="" stroke="none" fill="#4c4c4c" fill-rule="evenodd"/><path d="M 369 14.763 C 369 15.351, 370.688 17.160, 372.750 18.783 C 381.967 26.036, 393.487 29.565, 405 28.664 C 412.275 28.094, 422 25.506, 422 24.139 C 422 23.187, 407.834 18.364, 399.500 16.478 C 390.628 14.471, 369 13.254, 369 14.763 M 342.160 18.734 C 339.223 19.599, 336.589 20.907, 336.308 21.641 C 335.520 23.693, 340.256 30.982, 345.750 36.175 C 356.463 46.299, 373.435 55.180, 388.452 58.521 C 396.504 60.313, 395.561 60.315, 440.268 58.385 C 450.175 57.957, 457.038 58.141, 461.116 58.943 C 464.459 59.601, 467.408 59.925, 467.669 59.664 C 469.120 58.213, 441.859 33, 438.838 33 C 438.272 33, 434.589 34.520, 430.654 36.378 C 416.547 43.038, 400.915 44.687, 386.596 41.025 C 375.329 38.143, 367.662 33.675, 358.689 24.760 C 354.394 20.492, 350.119 17.036, 349.189 17.081 C 348.260 17.125, 345.097 17.869, 342.160 18.734 M 315.500 30.620 C 299.860 40.043, 285.392 54.570, 275.517 70.765 C 273.416 74.211, 271.923 77.256, 272.198 77.531 C 272.474 77.807, 277.154 76.825, 282.600 75.349 C 291.199 73.018, 294.406 72.664, 307 72.659 C 329.362 72.650, 338.269 75.164, 367 89.594 C 385.893 99.082, 401.486 104.683, 415 106.834 C 425.920 108.572, 450.226 107.684, 459.207 105.219 C 468.569 102.650, 476.859 98.698, 481.739 94.480 C 485.261 91.436, 485.337 91.227, 484.060 88.146 C 481.613 82.237, 472.631 76.534, 460.929 73.457 C 454.209 71.690, 445.770 71.776, 416.500 73.908 C 402.436 74.932, 388.579 73.815, 378.543 70.849 C 356.321 64.279, 332.891 47.654, 325.006 32.859 C 323.288 29.637, 321.797 27.001, 321.691 27.003 C 321.586 27.004, 318.800 28.632, 315.500 30.620 M 34.500 29.945 C 29.047 32.177, 26.603 39.397, 29.442 44.888 C 31.254 48.392, 34.379 50, 39.374 50 C 42.922 50, 44.838 48.806, 47.354 45.027 C 52.752 36.920, 43.625 26.210, 34.500 29.945 M 211.826 64.712 C 206.180 68.215, 205.230 76.384, 209.923 81.077 C 218.030 89.184, 231.823 79.293, 226.572 69.138 C 223.678 63.544, 216.960 61.527, 211.826 64.712 M 103.500 84.673 C 74.895 87.704, 55.076 109.194, 55.015 137.250 C 55.007 140.963, 55.407 144, 55.904 144 C 58.334 144, 87.236 134.054, 101.452 128.326 C 117.049 122.042, 142.085 110.478, 146.863 107.352 L 149.226 105.806 144.863 101.277 C 134.091 90.097, 117.015 83.242, 103.500 84.673 M 297.874 87.037 C 282.628 88.818, 264.810 95.739, 262.963 100.598 C 261.736 103.824, 261.713 108.296, 262.926 107.546 C 266.808 105.146, 281.013 102.800, 294.709 102.295 C 319.909 101.367, 331.290 105.045, 358.500 122.913 C 374.501 133.421, 404.233 148.541, 417.500 152.917 C 443.097 161.361, 465.777 160.690, 485.158 150.917 L 490.815 148.065 491.527 139.516 C 492.223 131.157, 491.565 116.746, 490.190 110.236 L 489.500 106.972 486 109.289 C 472.886 117.971, 445.633 124.090, 427.237 122.482 C 401.903 120.267, 382.048 114.118, 358.407 101.163 C 344.955 93.791, 332.440 89.321, 320 87.445 C 309.735 85.896, 307.924 85.863, 297.874 87.037 M 168 90.198 C 160.326 91.877, 157.199 96.189, 159.568 101.823 C 161.127 105.532, 164.108 106.509, 171.053 105.587 C 173.774 105.226, 176 105.143, 176 105.402 C 176 105.662, 172.217 108.365, 167.593 111.410 C 151.325 122.123, 114.464 139.165, 86 149.131 C 66.223 156.055, 36.081 163.414, 34.396 161.729 C 34.092 161.425, 35.911 159.964, 38.438 158.483 C 46.277 153.890, 47.948 149.377, 43.658 144.389 C 40.392 140.592, 36.693 140.865, 29.463 145.436 C 17.330 153.106, 12.283 159.885, 13.496 166.877 C 15.637 179.222, 30.747 181.179, 61.229 173.060 L 67.957 171.268 72.015 175.014 C 81.134 183.432, 93.999 188.286, 107.124 188.261 C 124.487 188.228, 140.050 179.898, 150.188 165.212 C 154.059 159.605, 157.952 148.320, 158.671 140.623 L 159.244 134.489 168.617 129.195 C 185.761 119.511, 197 108.664, 197 101.800 C 197 97.667, 194.420 93.227, 190.701 90.960 C 187.116 88.773, 176.190 88.407, 168 90.198 M 281.968 117.481 C 277.826 118.266, 271.076 119.967, 266.968 121.261 L 259.500 123.613 259.626 135.261 C 259.796 151.075, 259.818 151.111, 266.243 145.996 C 277.010 137.423, 294.150 131.060, 306.590 131.017 C 312.994 130.996, 325.154 134.068, 332.594 137.588 C 348.410 145.070, 359.106 154.262, 389.767 186.717 C 412.878 211.181, 423.574 217.331, 443.205 217.444 L 452.910 217.500 457.522 213 C 467.637 203.130, 478.738 186.248, 483.590 173.356 C 484.906 169.860, 485.768 167, 485.507 167 C 485.245 167, 481.086 168.170, 476.265 169.599 C 465.466 172.801, 448.243 173.850, 435.963 172.055 C 411.071 168.415, 383.687 156.209, 346.527 132.189 C 333.990 124.086, 327.116 120.607, 319.500 118.511 C 311.165 116.218, 291.480 115.677, 281.968 117.481 M 301 145.672 C 290.005 147.729, 279.489 153.108, 270.533 161.256 L 264.566 166.685 267.432 173.593 C 271.420 183.208, 275.392 190.229, 281.909 199.184 C 288.273 207.930, 286.665 207.629, 301.500 202.843 C 320.600 196.681, 339.028 198.447, 353 207.779 C 354.375 208.697, 357.826 210.407, 360.669 211.580 C 372.629 216.511, 382.902 227.924, 386.475 240.250 C 387.392 243.413, 388.510 246, 388.960 246 C 397.532 246, 429.248 235.644, 431.415 232.138 C 431.706 231.667, 429.018 230.490, 425.441 229.521 C 410.971 225.604, 399.464 217.791, 383.500 201.042 C 347.133 162.885, 337.051 154.300, 321.988 148.660 C 315.442 146.210, 305.611 144.810, 301 145.672 M 316 213.647 C 314.625 213.917, 309.244 215.485, 304.041 217.132 C 291.314 221.161, 280.012 222.568, 271.887 221.137 C 264.565 219.847, 264.706 219.733, 263.013 228.339 C 260.503 241.099, 261.994 257.757, 266.060 262.360 C 266.478 262.832, 265.303 265.205, 263.451 267.633 C 261.598 270.060, 259.770 273.707, 259.390 275.737 C 258.479 280.591, 260.616 296.343, 262.879 301.460 C 266.491 309.625, 275.173 314.530, 284.774 313.828 L 289.257 313.500 291.379 320.033 C 292.545 323.626, 295.159 328.875, 297.187 331.697 L 300.874 336.829 292.492 341.533 C 287.882 344.121, 281.609 348.719, 278.553 351.751 C 270.311 359.927, 267.555 366.497, 265.022 384 C 258.076 432.008, 256.748 442.081, 257.292 442.625 C 257.625 442.959, 259.338 442.729, 261.098 442.116 C 263.305 441.346, 281.641 441, 320.168 441 L 376.038 441 375.526 438.750 C 374.460 434.061, 370 404.126, 370 401.659 C 370 395.852, 377.734 392.959, 381.770 397.255 C 383.970 399.597, 384.028 399.894, 389.163 434.719 L 391.407 449.938 389.050 452.447 L 386.693 454.956 325.419 455.228 C 265.309 455.495, 264.093 455.539, 261.384 457.562 C 255.880 461.673, 254.500 464.580, 254.500 472.069 L 254.500 478.995 250.719 478.998 C 248.568 478.999, 246.768 478.461, 246.545 477.750 C 246.329 477.063, 244.352 470.650, 242.151 463.500 C 211.396 363.574, 210.339 360.351, 207.695 358.499 C 205.840 357.200, 195.648 357, 131.232 357 L 56.909 357 54.352 359.557 C 52.377 361.532, 51.898 362.842, 52.250 365.307 C 52.500 367.063, 57.521 383.350, 63.408 401.500 C 69.294 419.650, 78.176 447.100, 83.146 462.500 C 89.161 481.139, 92.857 491.085, 94.202 492.250 C 96.107 493.901, 105.381 494, 258.414 494 L 420.607 494 425.805 491.410 C 432.046 488.300, 436.346 483.354, 439.020 476.212 C 441.560 469.430, 441.518 467.270, 438.456 447.187 C 437.057 438.009, 433.925 416.927, 431.496 400.337 C 426.780 368.134, 425.081 361.553, 419.325 353.186 C 411.324 341.557, 403.848 337.621, 379.233 332.073 L 370.965 330.209 368.875 335.069 C 364.885 344.344, 352.836 352.917, 338.936 356.370 C 330.159 358.550, 324.748 358.484, 322.655 356.171 C 318.936 352.062, 322.010 347, 328.223 347 C 333.940 347, 344.313 343.305, 349.312 339.488 C 355.154 335.028, 359.107 329.271, 362.009 321 C 363.630 316.380, 365.504 313.343, 368.490 310.500 C 373.430 305.796, 375.270 302.463, 377.009 295.068 C 379.550 284.265, 375.668 249.258, 370.864 239.651 C 366.947 231.819, 359.309 225.442, 351.630 223.593 C 350.052 223.213, 347.127 221.613, 345.130 220.039 C 343.134 218.464, 339.250 216.410, 336.500 215.474 C 331.393 213.735, 320.494 212.764, 316 213.647 M 28.212 230.109 C 24.591 231.175, 21.010 236.013, 21.004 239.846 C 20.996 244.775, 25.552 249.681, 30.500 250.072 C 34.785 250.411, 36.257 249.896, 39.077 247.077 C 43.087 243.067, 43.158 237.287, 39.250 233.051 C 36.068 229.603, 32.846 228.744, 28.212 230.109 M 112.500 230.492 C 105.722 232.872, 99.952 241.484, 100.022 249.116 C 100.055 252.650, 103.351 259.139, 106.624 262.114 C 118.597 272.995, 138 264.487, 138 248.356 C 138 239.761, 133.173 232.956, 125.101 230.172 C 120.730 228.665, 117.469 228.748, 112.500 230.492 M 479 243.660 C 470.860 246.885, 469.976 259.390, 477.641 262.882 C 484.947 266.211, 491.847 262.539, 492.712 254.860 C 493.164 250.852, 492.874 249.894, 490.364 247.109 C 487.505 243.936, 482.295 242.355, 479 243.660 M 304.500 270.861 C 289.650 273.413, 276.877 275.902, 276.115 276.392 C 275.041 277.085, 274.872 278.956, 275.361 284.748 C 276.151 294.089, 277.637 297.398, 281.226 297.813 C 283.948 298.128, 337.581 289.377, 339.249 288.346 C 341.249 287.110, 341.589 283.292, 340.340 276.096 C 338.970 268.205, 337.407 265.903, 333.559 266.111 C 332.426 266.172, 319.350 268.310, 304.500 270.861 M 437.292 282.664 C 426.872 289.421, 425.362 303.331, 434.110 311.992 C 441.836 319.641, 453.946 319.230, 461.320 311.068 C 469.439 302.081, 466.711 287.250, 455.929 281.752 C 450.553 279.010, 442.304 279.414, 437.292 282.664 M 39.500 319.889 C 30.251 322.255, 23.204 328.129, 19.248 336.771 C 17.088 341.489, 16.815 343.248, 17.205 349.974 C 17.719 358.868, 20.371 364.484, 26.661 370.007 C 30.511 373.388, 38.755 377.578, 39.699 376.635 C 39.992 376.342, 39.729 374.662, 39.116 372.902 C 36.325 364.896, 38.742 354.318, 44.624 348.803 C 49.387 344.337, 53.958 343, 64.468 343 C 75.354 343, 75.319 343.039, 71.433 335.241 C 68.505 329.366, 63.443 324.516, 57.551 321.941 C 52.746 319.840, 43.706 318.813, 39.500 319.889" stroke="none" fill="#444444" fill-rule="evenodd"/></svg>